<?xml version="1.0" encoding="UTF-8"?>
<!DOCTYPE svg PUBLIC "-//W3C//DTD SVG 1.1//EN" "http://www.w3.org/Graphics/SVG/1.1/DTD/svg11.dtd">
<!-- Creator: CorelDRAW -->
<svg xmlns="http://www.w3.org/2000/svg" xml:space="preserve" width="512px" height="512px" version="1.1" style="shape-rendering:geometricPrecision; text-rendering:geometricPrecision; image-rendering:optimizeQuality; fill-rule:evenodd; clip-rule:evenodd"
viewBox="0 0 512 512"
 xmlns:xlink="http://www.w3.org/1999/xlink">
 <defs>
  <style type="text/css">
   <![CDATA[
    .fil0 {fill:black}
   ]]>
  </style>
 </defs>
 <g id="Layer_x0020_1">
  <metadata id="CorelCorpID_0Corel-Layer"/>
  <g id="_464624552">
   <g>
    <g>
     <g>
      <g>
       <path class="fil0" d="M256 203c-3,0 -6,-2 -7,-5 -17,-63 -35,-129 -10,-171 7,-13 19,-22 32,-25 14,-4 28,-2 41,5 19,12 25,27 26,47 17,-9 34,-12 53,-1 1,0 1,0 1,0 25,15 34,48 19,73 -24,42 -90,60 -153,77 -1,0 -1,0 -2,0zm29 -189c-3,0 -7,0 -10,1 -10,3 -19,10 -24,19 -21,36 -6,95 10,154 58,-16 117,-33 138,-69 5,-9 7,-20 4,-30 -3,-10 -10,-18 -19,-24 -16,-9 -29,-7 -49,7 -2,1 -5,2 -7,0 -3,-1 -4,-3 -4,-6 1,-26 -4,-37 -20,-47 -6,-3 -12,-5 -19,-5z"/>
      </g>
      <g>
       <path class="fil0" d="M277 166c-1,0 -2,0 -4,-1 -3,-2 -4,-6 -2,-9l36 -63c2,-4 6,-5 9,-3 4,2 5,6 3,10l-36 63c-1,2 -4,3 -6,3z"/>
      </g>
     </g>
     <g>
      <g>
       <path class="fil0" d="M353 358c-9,0 -18,-2 -27,-7 -42,-24 -60,-90 -77,-153 -1,-4 2,-8 5,-9 64,-17 129,-34 172,-10 25,15 33,47 19,73 0,0 0,0 0,0 -12,19 -27,25 -47,26 10,17 12,34 1,54 0,0 0,0 0,0 -7,12 -19,21 -32,25 -5,1 -10,1 -14,1zm-88 -157c15,58 32,117 68,138 9,5 20,7 30,4 10,-3 18,-9 24,-18 9,-16 7,-29 -7,-50 -1,-2 -1,-5 0,-7 1,-3 4,-4 6,-4 26,1 37,-4 47,-19 10,-19 4,-43 -15,-54 -36,-21 -95,-6 -153,10zm128 127l0 0 0 0z"/>
      </g>
      <g>
       <path class="fil0" d="M355 260c-1,0 -2,0 -4,-1l-63 -36c-3,-2 -4,-6 -2,-9 2,-4 6,-5 9,-3l63 36c4,2 5,6 3,10 -1,2 -4,3 -6,3z"/>
      </g>
     </g>
     <g>
      <g>
       <path class="fil0" d="M227 392c-9,0 -18,-2 -26,-7 0,0 -1,0 -1,0 -19,-11 -25,-27 -26,-46 -17,9 -34,11 -53,-1 -13,-7 -22,-18 -25,-31 -4,-14 -2,-28 5,-40 24,-43 90,-61 153,-78 4,-1 8,2 9,5 17,64 35,129 10,172 -10,17 -28,26 -46,26zm-19 -19c19,10 42,4 53,-14 21,-36 6,-96 -10,-154 -58,15 -117,32 -138,69 -5,9 -7,19 -4,29 3,10 9,18 18,23 1,0 1,0 1,0 16,10 28,8 49,-6 2,-1 5,-1 7,0 3,1 4,4 4,6 -1,26 4,38 20,47z"/>
      </g>
      <g>
       <path class="fil0" d="M199 302c-1,0 -2,0 -3,-1 -4,-2 -5,-6 -3,-9l36 -63c2,-4 6,-5 10,-3 3,2 4,6 2,10l-36 63c-1,2 -4,3 -6,3z"/>
      </g>
     </g>
     <g>
      <g>
       <path class="fil0" d="M139 225c-20,0 -38,-3 -53,-12 -25,-15 -33,-46 -19,-72 0,0 0,0 0,0 11,-18 25,-26 47,-27 -10,-18 -12,-33 -1,-53 0,0 0,0 0,0 7,-13 19,-21 32,-25 14,-4 28,-2 41,5 42,25 60,90 77,153 1,4 -2,8 -5,9 -41,11 -83,22 -119,22zm-60 -77c-10,19 -4,42 15,53 36,21 95,6 154,-10 -16,-58 -33,-117 -69,-138 -9,-5 -20,-6 -30,-4 -10,3 -18,10 -24,19 -9,16 -7,27 7,49 1,3 2,6 0,8 -1,2 -4,3 -6,3 -25,-2 -37,3 -47,20z"/>
      </g>
      <g>
       <path class="fil0" d="M220 182c-1,0 -2,0 -3,-1l-63 -37c-4,-2 -5,-6 -3,-9 2,-4 6,-5 10,-3l63 37c3,2 4,6 2,10 -1,2 -4,3 -6,3z"/>
      </g>
     </g>
    </g>
    <g>
     <path class="fil0" d="M185 512c-3,0 -6,-2 -7,-5 -1,-4 1,-8 5,-9 113,-30 99,-170 80,-250 -1,-4 2,-8 5,-9 4,-1 8,2 9,6 9,39 18,97 9,149 -5,29 -14,53 -29,72 -17,23 -41,38 -70,46 -1,0 -1,0 -2,0z"/>
    </g>
   </g>
  </g>
 </g>
</svg>
